<svg width="21" height="20" viewBox="0 0 21 20" fill="none" xmlns="http://www.w3.org/2000/svg">
<path d="M14.9154 2.20343L15.2963 2.42375L15.7161 2.2918C16.8076 1.94865 17.6559 1.80163 18.2757 1.80678C18.9011 1.81198 19.1605 1.96786 19.2656 2.07764C19.3616 2.17798 19.5012 2.42071 19.4516 3.02544C19.4018 3.63384 19.1664 4.47935 18.6705 5.59334L18.4912 5.99624L18.6677 6.40037C19.1488 7.50141 19.4162 8.71817 19.4162 10C19.4162 14.9706 15.3867 19 10.4162 19C5.44561 19 1.41617 14.9706 1.41617 10C1.41617 8.71817 1.68355 7.50142 2.16461 6.40037L2.35732 5.95933L2.13282 5.53358C1.46232 4.26197 1.12899 3.32319 1.03094 2.66844C0.932873 2.01363 1.08993 1.83318 1.13701 1.7892C1.22329 1.70859 1.50516 1.55675 2.24215 1.60362C2.94992 1.64864 3.89952 1.86759 5.08661 2.28196L5.51977 2.43315L5.9169 2.20343C7.23966 1.43825 8.77522 1 10.4162 1C12.0571 1 13.5927 1.43825 14.9154 2.20343Z" stroke="#B7FFE4" stroke-width="2"/>
<circle cx="7.41602" cy="8" r="1" fill="#B7FFE4"/>
<circle cx="13.416" cy="8" r="1" fill="#B7FFE4"/>
<path d="M13.4163 13C13.4163 13.6721 12.5348 15 10.4163 14.9999C8.29779 14.9999 7.41631 13.672 7.41631 13C7.41631 12.7804 7.39462 12.56 7.37866 12.3978C7.37671 12.378 7.37484 12.3591 7.37311 12.3411C7.35477 12.1505 7.34795 12.0392 7.35322 11.9526C7.35468 11.9286 7.35686 11.9119 7.35877 11.9009C7.36735 11.8947 7.38046 11.8861 7.3996 11.8756C7.39594 11.8776 7.39612 11.8775 7.40092 11.876C7.41867 11.8706 7.49944 11.8456 7.68275 11.8338C7.89608 11.82 8.16277 11.8282 8.47699 11.8514C8.65742 11.8647 8.87006 11.8854 9.09371 11.9071C9.54854 11.9513 10.0489 12 10.4165 12C10.8083 12 11.3264 11.9455 11.7861 11.897C12.0017 11.8743 12.2045 11.853 12.3754 11.8393C12.6848 11.8144 12.9421 11.8059 13.1461 11.8203C13.3428 11.8342 13.4124 11.8649 13.4128 11.8641C13.4128 11.864 13.4119 11.8634 13.4101 11.8624C13.429 11.8735 13.4399 11.8816 13.4455 11.8865C13.4491 11.8974 13.4564 11.9253 13.4608 11.9802C13.4681 12.0734 13.4638 12.1911 13.4502 12.3741C13.4484 12.3989 13.4463 12.4256 13.444 12.454C13.432 12.607 13.4163 12.8078 13.4163 13ZM7.36271 11.8837C7.36272 11.8837 7.3626 11.8841 7.36231 11.8848L7.36271 11.8837ZM7.34709 11.9102C7.34572 11.9118 7.34489 11.9126 7.34481 11.9126C7.34474 11.9125 7.34543 11.9117 7.34709 11.9102ZM13.4508 11.8918C13.4507 11.8918 13.4498 11.8909 13.4484 11.8891C13.4502 11.8909 13.4509 11.8918 13.4508 11.8918Z" stroke="#B7FFE4" stroke-width="2"/>
</svg>
