<svg width="29" height="29" viewBox="0 0 29 29" fill="none" xmlns="http://www.w3.org/2000/svg">
<circle cx="14.5" cy="14.5" r="14.5" fill="#F7F7F7"/>
<path fill-rule="evenodd" clip-rule="evenodd" d="M11.1278 20.834L11.7918 19.6839C14.9693 20.9584 18.6934 19.7379 20.4549 16.6869C21.8889 14.2032 21.6848 11.2367 20.0663 9.054C19.6932 8.55222 18.9384 8.54365 18.5262 9.01352C18.2165 9.3659 18.197 9.88577 18.4796 10.2603C19.6602 11.8275 19.7514 13.9055 18.7259 15.6817C17.5174 17.7749 15.0116 18.6711 12.8028 17.9328L13.3963 16.9048C13.6988 16.3809 13.41 15.9231 12.8963 15.7709L7.9745 15.7236C7.33297 15.7828 7.0841 16.2119 7.26409 16.6541L9.89628 20.967C10.1949 21.2838 10.8253 21.3579 11.1278 20.834Z" fill="black"/>
</svg>
