<svg width="81" height="30" viewBox="0 0 81 30" fill="none" xmlns="http://www.w3.org/2000/svg">
<g clip-path="url(#clip0)">
<path d="M41.8187 9.93672L45.6724 9.6883C45.7603 10.3166 45.9215 10.7843 46.1852 11.1203C46.6102 11.6464 47.1963 11.9094 47.9729 11.9094C48.5443 11.9094 48.9986 11.7779 49.3063 11.5003C49.5993 11.2811 49.7752 10.9304 49.7752 10.5651C49.7752 10.2144 49.614 9.87826 49.3356 9.65907C49.0425 9.39604 48.3538 9.13301 47.2695 8.89921C45.4966 8.50466 44.2218 7.9786 43.4745 7.30642C42.7272 6.67807 42.3023 5.75746 42.3316 4.77841C42.3316 4.10622 42.5367 3.43403 42.9177 2.87875C43.3573 2.2504 43.958 1.75357 44.676 1.47592C45.4526 1.13983 46.5369 0.964478 47.8996 0.964478C49.57 0.964478 50.8448 1.27135 51.724 1.89969C52.6031 2.51343 53.1306 3.5071 53.2918 4.86609L49.4821 5.08528C49.3795 4.50077 49.1744 4.077 48.8374 3.79935C48.5004 3.52171 48.0608 3.3902 47.4893 3.3902C47.0204 3.3902 46.6688 3.49249 46.4343 3.68245C46.2145 3.85781 46.068 4.12083 46.0827 4.41309C46.0827 4.63228 46.1999 4.83686 46.3757 4.96837C46.5662 5.14373 47.0204 5.30447 47.7384 5.4506C49.5114 5.83053 50.7715 6.21046 51.5481 6.605C52.3247 6.99955 52.8815 7.48177 53.2185 8.05167C53.5702 8.63618 53.746 9.30837 53.7314 9.99517C53.7314 10.8135 53.4969 11.6318 53.028 12.3186C52.5445 13.0346 51.8705 13.5899 51.0792 13.926C50.244 14.2913 49.189 14.4813 47.9289 14.4813C45.7017 14.4813 44.1632 14.0575 43.2987 13.1954C42.4342 12.3332 41.9213 11.2519 41.8187 9.93672ZM0.923119 14.2621V1.19828H7.678C8.92348 1.19828 9.89056 1.30057 10.5499 1.51976C11.1946 1.72434 11.7661 2.14811 12.1471 2.71801C12.572 3.34636 12.7771 4.077 12.7625 4.83686C12.8064 6.12278 12.1471 7.35026 11.0188 7.99322C10.5792 8.24163 10.0957 8.41699 9.5975 8.50466C9.96382 8.60695 10.3301 8.78231 10.6525 8.98689C10.9016 9.19146 11.1067 9.42527 11.2972 9.67369C11.517 9.9221 11.7075 10.1997 11.8687 10.492L13.8321 14.2767H9.23119L7.06259 10.2582C6.78419 9.74675 6.54975 9.41066 6.32996 9.24992C6.0369 9.04534 5.68524 8.94305 5.33358 8.94305H4.98191V14.2475H0.923119V14.2621ZM4.98191 6.4881H6.69627C7.06259 6.45888 7.41426 6.40043 7.76592 6.31275C8.02967 6.26891 8.26411 6.12278 8.42529 5.90359C8.82091 5.37753 8.7623 4.63228 8.27876 4.17929C8.01501 3.96009 7.50217 3.84319 6.76954 3.84319H4.98191V6.4881ZM0 25.4555L3.85365 25.2071C3.94157 25.8354 4.10275 26.303 4.3665 26.6391C4.77677 27.1652 5.37753 27.4428 6.15412 27.4428C6.72558 27.4428 7.17981 27.3113 7.48752 27.0336C7.78057 26.7998 7.9564 26.4638 7.9564 26.0984C7.9564 25.7477 7.79522 25.4116 7.51682 25.1924C7.22377 24.9294 6.53509 24.6664 5.43614 24.4326C3.66317 24.038 2.38839 23.512 1.6411 22.8398C0.893813 22.2114 0.468886 21.2908 0.498191 20.3118C0.498191 19.6396 0.703329 18.9674 1.0843 18.4121C1.52388 17.7838 2.12464 17.2869 2.84262 17.0093C3.61921 16.6732 4.70351 16.4978 6.06621 16.4978C7.73661 16.4978 9.0114 16.8047 9.89056 17.4331C10.7697 18.0614 11.2826 19.0405 11.4437 20.3995L7.63405 20.6186C7.53148 20.0341 7.32634 19.6104 6.98933 19.3327C6.66697 19.0551 6.21274 18.9236 5.64128 18.9382C5.1724 18.9382 4.82073 19.0405 4.58629 19.245C4.35185 19.4204 4.21997 19.6834 4.23462 19.9757C4.23462 20.1949 4.35185 20.3995 4.52768 20.531C4.71816 20.7063 5.1724 20.8671 5.89038 21.0132C7.66335 21.3931 8.92348 21.7731 9.70007 22.1676C10.4767 22.5621 11.0335 23.0444 11.3705 23.6143C11.7221 24.1988 11.898 24.871 11.898 25.5431C11.898 26.3615 11.6489 27.1652 11.1946 27.852C10.7111 28.568 10.0371 29.1233 9.24584 29.4594C8.41064 29.8247 7.35564 30.0147 6.09551 30.0147C3.86831 30.0147 2.32978 29.5909 1.46527 28.7287C0.60076 27.852 0.117221 26.7706 0 25.4555H0Z" fill="black"/>
<path d="M19.488 24.4325L23.034 25.4993C22.8435 26.3906 22.4479 27.2382 21.9057 27.9834C21.4075 28.641 20.7481 29.1525 20.0009 29.4885C19.2389 29.8246 18.2718 30 17.0996 30C15.6783 30 14.5061 29.7954 13.6123 29.3863C12.7038 28.9771 11.9272 28.2465 11.2679 27.209C10.6085 26.1714 10.2861 24.8417 10.2861 23.2197C10.2861 21.057 10.8576 19.3911 12.0151 18.2367C13.1727 17.0823 14.7992 16.4978 16.9091 16.4978C18.5649 16.4978 19.8543 16.8339 20.8068 17.4915C21.7445 18.1637 22.4479 19.1865 22.9167 20.5601L19.3415 21.3492C19.2536 21.0424 19.1217 20.7355 18.9459 20.4725C18.7261 20.1656 18.4477 19.9318 18.1107 19.7564C17.7737 19.5811 17.3927 19.508 17.0117 19.508C16.0886 19.508 15.3853 19.8734 14.9017 20.6186C14.5354 21.1593 14.3449 22.0214 14.3449 23.1904C14.3449 24.6371 14.5647 25.6308 15.0043 26.1715C15.4439 26.7121 16.0593 26.9752 16.8652 26.9752C17.6418 26.9752 18.2279 26.756 18.6235 26.3322C19.0191 25.8792 19.3122 25.2508 19.488 24.4325ZM27.7668 16.717H31.8109V21.2908H36.236V16.717H40.3095V29.7808H36.236V24.491H31.8109V29.7808H27.7668V16.717Z" fill="black"/>
<path d="M39.7529 23.2489C39.7529 21.1154 40.3537 19.4495 41.5406 18.2659C42.7274 17.0823 44.3978 16.4832 46.5225 16.4832C48.7057 16.4832 50.3761 17.0677 51.563 18.2367C52.7499 19.4057 53.336 21.0423 53.336 23.1466C53.336 24.6809 53.0722 25.923 52.5594 26.9021C52.0612 27.8665 51.2846 28.6556 50.3322 29.1816C49.3504 29.7223 48.1343 30 46.6837 30C45.2037 30 43.9876 29.7662 43.0205 29.2985C42.0241 28.8017 41.2035 28.0272 40.6614 27.0774C40.0606 26.0545 39.7529 24.7832 39.7529 23.2489ZM43.7971 23.2635C43.7971 24.5786 44.0462 25.5285 44.5297 26.113C45.0132 26.6829 45.6873 26.9751 46.5371 26.9751C47.4016 26.9751 48.0757 26.6975 48.5592 26.1276C49.0427 25.5577 49.2772 24.5494 49.2772 23.0881C49.2772 21.8607 49.0281 20.9547 48.5299 20.3994C48.0317 19.8295 47.3577 19.5518 46.5078 19.5518C45.7605 19.5226 45.0425 19.8441 44.5444 20.414C44.0462 20.9839 43.7971 21.9337 43.7971 23.2635ZM57.4827 23.2489C57.4827 21.1154 58.0834 19.4495 59.2703 18.2659C60.4572 17.0823 62.1276 16.4832 64.2522 16.4832C66.4355 16.4832 68.1205 17.0677 69.2927 18.2367C70.4649 19.4057 71.0657 21.0423 71.0657 23.1466C71.0657 24.6809 70.802 25.923 70.2891 26.9021C69.7909 27.8665 69.0143 28.6556 68.0619 29.1816C67.0802 29.7223 65.864 30 64.4134 30C62.9335 30 61.7173 29.7662 60.7502 29.2985C59.7538 28.8017 58.9333 28.0272 58.3911 27.0774C57.7904 26.0545 57.4827 24.7832 57.4827 23.2489ZM61.5268 23.2635C61.5268 24.5786 61.7759 25.5285 62.2594 26.113C62.743 26.6829 63.417 26.9751 64.2669 26.9751C65.1314 26.9751 65.8054 26.6975 66.2889 26.1276C66.7725 25.5577 67.0069 24.5494 67.0069 23.0881C67.0069 21.8607 66.7578 20.9547 66.2596 20.3994C65.7614 19.8295 65.0874 19.5518 64.2376 19.5518C63.4903 19.5226 62.7576 19.8441 62.2741 20.414C61.7759 20.9839 61.5268 21.9337 61.5268 23.2635Z" fill="black"/>
<path d="M70.6406 16.717H74.6848V26.566H81.0001V29.7809H70.626V16.717H70.6406Z" fill="black"/>
<path d="M66.1633 15.965C70.2314 12.9006 71.4872 7.70767 68.9681 4.36625C66.4491 1.02484 61.109 0.800288 57.0409 3.86471C52.9727 6.92913 51.7169 12.1221 54.236 15.4635C56.7551 18.8049 62.0951 19.0295 66.1633 15.965Z" fill="black"/>
<path d="M66.1633 15.965C70.2314 12.9006 71.4872 7.70767 68.9681 4.36625C66.4491 1.02484 61.109 0.800288 57.0409 3.86471C52.9727 6.92913 51.7169 12.1221 54.236 15.4635C56.7551 18.8049 62.0951 19.0295 66.1633 15.965Z" stroke="black" stroke-width="0.766744" stroke-miterlimit="10"/>
<path d="M66.1633 15.965C70.2314 12.9006 71.4872 7.70767 68.9681 4.36625C66.4491 1.02484 61.109 0.800288 57.0409 3.86471C52.9727 6.92913 51.7169 12.1221 54.236 15.4635C56.7551 18.8049 62.0951 19.0295 66.1633 15.965Z" fill="white" stroke="black" stroke-width="0.766744" stroke-miterlimit="10"/>
<path d="M66.1633 15.965C70.2314 12.9006 71.4872 7.70767 68.9681 4.36625C66.4491 1.02484 61.109 0.800288 57.0409 3.86471C52.9727 6.92913 51.7169 12.1221 54.236 15.4635C56.7551 18.8049 62.0951 19.0295 66.1633 15.965Z" stroke="black" stroke-width="0.766744" stroke-miterlimit="10"/>
<path d="M57.4971 8.95759L58.9624 7.9347L60.7647 10.4919C61.0724 10.9011 61.3068 11.3395 61.4826 11.8217C61.5852 12.187 61.5559 12.5816 61.4094 12.9323C61.2189 13.3706 60.9112 13.736 60.5009 13.999C60.0174 14.3351 59.6071 14.5251 59.2554 14.5835C58.9184 14.642 58.5668 14.5835 58.2444 14.4374C57.8927 14.262 57.585 14.0136 57.3506 13.6921L58.6107 12.5231C58.7133 12.6838 58.8452 12.83 58.9917 12.9469C59.0943 13.0199 59.2115 13.0638 59.3434 13.0638C59.4459 13.0638 59.5485 13.0199 59.6218 12.9615C59.7683 12.8738 59.8708 12.6985 59.8562 12.5231C59.8122 12.2747 59.7097 12.0263 59.5485 11.8363L57.4971 8.95759ZM61.8929 10.5796L63.2263 9.52749C63.3728 9.70284 63.5633 9.83436 63.7685 9.90742C64.0615 9.9951 64.3692 9.93665 64.6183 9.74668C64.7942 9.62978 64.9407 9.46904 64.9993 9.26446C65.0872 9.00143 64.9407 8.70918 64.6769 8.6215C64.633 8.60689 64.589 8.59227 64.5451 8.59227C64.3692 8.57766 64.0615 8.65072 63.6073 8.84069C62.86 9.14756 62.2739 9.26446 61.8343 9.22062C61.4094 9.17678 61.0138 8.95759 60.7793 8.59227C60.6035 8.34386 60.5156 8.0516 60.5009 7.75935C60.5009 7.42325 60.5888 7.08716 60.7793 6.80952C61.0577 6.41497 61.3947 6.07888 61.805 5.81585C62.4204 5.39208 62.9626 5.1875 63.4315 5.1875C63.9003 5.1875 64.3399 5.40669 64.7502 5.85969L63.4315 6.89719C63.1677 6.5611 62.6695 6.48804 62.3325 6.75107L62.2885 6.7949C62.142 6.88258 62.0394 7.01409 61.9808 7.17484C61.9369 7.29174 61.9662 7.42325 62.0394 7.52554C62.0981 7.59861 62.186 7.65706 62.2885 7.65706C62.4058 7.67167 62.6109 7.61322 62.904 7.4817C63.6366 7.17484 64.1934 6.99948 64.5744 6.94103C64.8967 6.88258 65.2337 6.91181 65.5414 7.04332C65.8198 7.16022 66.0543 7.3648 66.2155 7.61322C66.4206 7.90547 66.5378 8.25618 66.5525 8.6215C66.5671 9.00143 66.4646 9.36675 66.2594 9.68823C65.9957 10.0828 65.6587 10.4189 65.263 10.6819C64.4571 11.2372 63.7978 11.471 63.2703 11.3833C62.6988 11.2956 62.2299 11.0034 61.8929 10.5796Z" fill="black"/>
</g>
<defs>
<clipPath id="clip0">
<rect width="81" height="30" fill="white"/>
</clipPath>
</defs>
</svg>
