<svg width="32" height="30" viewBox="0 0 32 30" fill="none" xmlns="http://www.w3.org/2000/svg">
<path d="M30.4092 11.4588L30.4092 11.4588L30.411 11.4643C30.5254 11.8109 30.5332 12.1842 30.4333 12.5354C30.3334 12.8866 30.1306 13.1992 29.8514 13.4326L23.5915 18.6614L23.3519 18.8616L23.4266 19.1647L25.4138 27.2312L25.4138 27.2312L25.4153 27.2369C25.5068 27.5904 25.4899 27.9635 25.3667 28.3071C25.2436 28.6508 25.02 28.9488 24.7256 29.1623L24.7238 29.1636C24.4419 29.3701 24.1046 29.4862 23.7562 29.497C23.4077 29.5078 23.064 29.4128 22.7699 29.2243L22.7683 29.2232L15.7881 24.7853L15.7759 24.7776L15.7633 24.7705C15.7071 24.7392 15.5957 24.6891 15.4498 24.703C15.3297 24.7145 15.2432 24.7652 15.2031 24.7928L8.72766 28.9097L8.72681 28.9102C8.39358 29.123 8.00442 29.2301 7.60996 29.2178C7.2155 29.2054 6.8337 29.0742 6.51426 28.841L6.51309 28.8401C6.17971 28.5982 5.92662 28.2607 5.78723 27.8715C5.64784 27.4824 5.62875 27.06 5.73251 26.6598L5.73319 26.6571L7.60366 19.2732L7.68024 18.9708L7.44241 18.7691L1.15419 13.4349L1.15419 13.4349L1.1515 13.4326C0.872373 13.1992 0.669503 12.8866 0.569607 12.5354C0.469708 12.1842 0.477499 11.8109 0.591949 11.4643L0.59198 11.4643L0.593726 11.4588C0.701647 11.1187 0.909094 10.8195 1.1887 10.6C1.46829 10.3805 1.80709 10.2509 2.16088 10.2277L10.3345 9.6949L10.6494 9.67438L10.7664 9.38137L13.8607 1.63181L13.8608 1.63182L13.8627 1.62686C13.9911 1.29507 14.2161 1.01019 14.5081 0.809256C14.8 0.608418 15.1452 0.500718 15.4987 0.5H15.5003C15.5003 0.5 15.5004 0.5 15.5004 0.5C15.8546 0.500078 16.2007 0.607522 16.4933 0.808479C16.786 1.00947 17.0116 1.2947 17.1403 1.627L17.1416 1.63037L20.1906 9.33545L20.3064 9.62819L20.6205 9.65025L28.8397 10.2275L28.8421 10.2277C29.1958 10.2509 29.5346 10.3805 29.8142 10.6C30.0938 10.8195 30.3013 11.1187 30.4092 11.4588Z" stroke="#FFCE51"/>
</svg>
